<svg xmlns="http://www.w3.org/2000/svg" id="svgPicture" x="0px" y="0px" width="100%" viewBox="0 0 200 300" enable-background="new 0 0 200 300" xml:space="preserve">
    <!-- Weißer Hintergrund -->
    <rect x="0" y="0" width="200" height="300" fill="white"/>

    <!-- Haus -->
    <rect id="card20-1" x="50" y="50" width="100" height="100" fill="none" stroke="black"/>


    <!-- Dach -->
    <line id="card20-2" x1="50" y1="50" x2="100" y2="20" stroke="black"/>
    <line id="card20-3" x1="100" y1="20" x2="150" y2="50" stroke="black"/>

    <!-- Fenster -->
    <rect id="card20-4" x="60" y="60" width="20" height="20" fill="none" stroke="black"/>
    <rect id="card20-5" x="120" y="60" width="20" height="20" fill="none" stroke="black"/>
    <rect id="card20-6" x="60" y="120" width="80" height="30" fill="none" stroke="black"/>

    <!-- Köpfe -->
    <circle id="card20-7" cx="50" cy="100" r="20" fill="white" stroke="black"/>
    <circle id="card20-8" cx="150" cy="100" r="20" fill="white" stroke="black"/>

    <!-- Körper -->
    <line id="card20-9" x1="50" y1="120" x2="50" y2="180" stroke="black"/>
    <line id="card20-10" x1="150" y1="120" x2="150" y2="180" stroke="black"/>

    <!-- Hände -->
    <line id="card20-11" x1="50" y1="140" x2="30" y2="160" stroke="black"/>
    <line id="card20-12" x1="50" y1="140" x2="70" y2="160" stroke="black"/>
    <line id="card20-13" x1="150" y1="140" x2="130" y2="160" stroke="black"/>
    <line id="card20-14" x1="150" y1="140" x2="170" y2="160" stroke="black"/>

    <!-- Beine -->
    <line id="card20-15" x1="50" y1="180" x2="30" y2="220" stroke="black"/>
    <line id="card20-16" x1="50" y1="180" x2="70" y2="220" stroke="black"/>
    <line id="card20-17" x1="150" y1="180" x2="130" y2="220" stroke="black"/>
    <line id="card20-18" x1="150" y1="180" x2="170" y2="220" stroke="black"/>

    <!-- Schornstein -->
    <rect id="card20-19" x="120" y="20" width="10" height="30" fill="white" stroke="black"/>

    <!-- Rauch -->
    <path id="card20-20" fill="none" stroke="black" d="M130,20 C140,10 160,10 170,20"/>
</svg>
