<svg xmlns="http://www.w3.org/2000/svg" id="svgPicture" x="0px" y="0px" width="100%" viewBox="0 0 200 300" enable-background="new 0 0 200 300" xml:space="preserve">
    <!-- Weißer Hintergrund -->
    <rect x="0" y="0" width="200" height="300" fill="white"/>

    <!-- Haus -->
    <rect id="1" x="50" y="50" width="100" height="100" fill="none" stroke="black"/>
    <rect id="2" x="60" y="60" width="20" height="20" fill="none" stroke="black"/>
    <rect id="3" x="120" y="60" width="20" height="20" fill="none" stroke="black"/>
    <rect id="4" x="60" y="120" width="80" height="30" fill="none" stroke="black"/>

    <!-- Dach -->
    <line id="5" x1="50" y1="50" x2="100" y2="20" stroke="black"/>
    <line id="6" x1="100" y1="20" x2="150" y2="50" stroke="black"/>

    <!-- Köpfe -->
    <circle id="7" cx="50" cy="100" r="20" fill="white" stroke="black"/>
    <circle id="8" cx="150" cy="100" r="20" fill="white" stroke="black"/>

    <!-- Körper -->
    <line id="9" x1="50" y1="120" x2="50" y2="180" stroke="black"/>
    <line id="10" x1="150" y1="120" x2="150" y2="180" stroke="black"/>

    <!-- Hände -->
    <line id="11" x1="50" y1="140" x2="30" y2="160" stroke="black"/>
    <line id="12" x1="50" y1="140" x2="70" y2="160" stroke="black"/>
    <line id="13" x1="150" y1="140" x2="130" y2="160" stroke="black"/>
    <line id="14" x1="150" y1="140" x2="170" y2="160" stroke="black"/>

    <!-- Beine -->
    <line id="15" x1="50" y1="180" x2="30" y2="220" stroke="black"/>
    <line id="16" x1="50" y1="180" x2="70" y2="220" stroke="black"/>
    <line id="17" x1="150" y1="180" x2="130" y2="220" stroke="black"/>
    <line id="18" x1="150" y1="180" x2="170" y2="220" stroke="black"/>
</svg>
